<svg width="25" height="25" viewBox="0 0 25 25" fill="none" xmlns="http://www.w3.org/2000/svg">
<g id="video-upload 1" clip-path="url(#clip0_4_395)">
<path id="Vector" d="M6.45313 0H18.5499V3.01966H21.5741V0C22.3759 0.000400902 23.1448 0.319197 23.7115 0.886298C24.2784 1.4534 24.5968 2.22239 24.5968 3.02419V21.1694C24.5968 21.9711 24.2784 22.7402 23.7115 23.3073C23.1448 23.8744 22.3759 24.1931 21.5741 24.1936V21.1648H18.5499V24.1936H6.45313V21.1648H3.42893V24.1936C2.62687 24.1936 1.85614 23.8749 1.289 23.3077C0.721848 22.7406 0.403229 21.9715 0.403229 21.1694V3.02419C0.403229 2.22213 0.721848 1.45291 1.289 0.885766C1.85614 0.318619 2.62536 0 3.42742 0L3.42893 3.01966H6.45313V0ZM9.47581 16.6331L16.2802 12.0968L9.47581 7.56048V16.6331ZM21.5741 18.1406V13.6044H18.5499V18.1406H21.5741ZM21.5741 10.5802V6.04385H18.5499V10.5802H21.5741ZM6.45313 18.1406V13.6044H3.42893V18.1406H6.45313ZM6.45313 10.5802V6.04385H3.42893V10.5802H6.45313Z" fill="#8D8D8D"/>
</g>
<defs>
<clipPath id="clip0_4_395">
<rect width="25" height="24.1936" fill="white"/>
</clipPath>
</defs>
</svg>
